<?xml version="1.0" encoding="utf-8"?>
<!-- Generator: Adobe Illustrator 23.1.0, SVG Export Plug-In . SVG Version: 6.00 Build 0)  -->
<svg version="1.1" xmlns="http://www.w3.org/2000/svg" xmlns:xlink="http://www.w3.org/1999/xlink" x="0px" y="0px"
	 viewBox="0 0 346.12 76.85" style="enable-background:new 0 0 346.12 76.85;" xml:space="preserve">
<style type="text/css">
	.st0{fill:#00AEEF;}
	.st1{display:none;}
</style>
<g id="logo">
	<g>
		<g>
			<polygon points="28.21,38.44 28.19,38.43 31.11,36.74 37.69,32.88 37.71,32.93 47.5,27.28 47.5,11 0,38.43 14.23,46.64 			"/>
			<polygon class="st0" points="53.19,7.71 53.19,30.31 53.19,30.31 53.19,52.86 34.16,41.87 20.31,50.15 66.55,76.85 66.55,0 			
				"/>
		</g>
		<g>
			<path d="M89.6,53.21l5.74-6.39c2.37,2.6,4.67,4.14,7.57,4.14c3.43,0,5.56-2.07,5.56-6.86V17.43h9.34v27.09
				c0,4.91-1.42,8.58-3.9,11.06c-2.54,2.54-6.27,3.84-10.76,3.84C96.69,59.42,92.44,56.58,89.6,53.21z"/>
			<path d="M133.45,17.43h9.11v41.4h-9.11V17.43z"/>
			<path d="M158.84,17.43h9.82l10.88,17.51l10.89-17.51h9.81v41.4h-9.05V31.8l-11.65,17.69h-0.24l-11.53-17.51v26.85h-8.93V17.43z"
				/>
			<path d="M216.12,17.43h19.22c4.73,0,8.46,1.3,10.82,3.67c1.9,1.89,2.84,4.2,2.84,7.04v0.12c0,4.67-2.49,7.27-5.44,8.93
				c4.79,1.83,7.75,4.61,7.75,10.17v0.12c0,7.57-6.15,11.36-15.49,11.36h-19.7V17.43z M239.96,29.67c0-2.72-2.13-4.26-5.98-4.26H225
				v8.76h8.39c4.02,0,6.57-1.3,6.57-4.38V29.67z M235.53,41.74H225v9.11h10.82c4.02,0,6.45-1.42,6.45-4.5v-0.12
				C242.27,43.45,240.2,41.74,235.53,41.74z"/>
			<path d="M310.34,17.43h18.93c5.26,0,9.34,1.48,12.06,4.2c2.31,2.31,3.55,5.56,3.55,9.46v0.12c0,6.68-3.61,10.88-8.87,12.83
				l10.11,14.79h-10.65l-8.87-13.25h-7.16v13.25h-9.11V17.43z M328.67,37.54c4.43,0,6.98-2.37,6.98-5.85v-0.12
				c0-3.9-2.72-5.92-7.16-5.92h-9.05v11.89H328.67z"/>
			<rect x="264.77" y="17.43" class="st0" width="31.23" height="7.97"/>
			<polygon points="273.82,42.03 293.34,42.03 293.34,33.93 273.82,33.93 273.82,33.89 264.77,33.89 264.77,58.83 296.29,58.83 
				296.29,50.73 273.82,50.73 			"/>
		</g>
	</g>
</g>
<g id="Guides" class="st1">
</g>
</svg>
